{
	"patcher" : 	{
		"fileversion" : 1,
		"appversion" : 		{
			"major" : 6,
			"minor" : 1,
			"revision" : 10,
			"architecture" : "x86"
		}
,
		"rect" : [ 229.0, 71.0, 1383.0, 775.0 ],
		"bglocked" : 0,
		"openinpresentation" : 0,
		"default_fontsize" : 11.595187,
		"default_fontface" : 0,
		"default_fontname" : "Arial",
		"gridonopen" : 0,
		"gridsize" : [ 15.0, 15.0 ],
		"gridsnaponopen" : 0,
		"statusbarvisible" : 2,
		"toolbarvisible" : 1,
		"boxanimatetime" : 200,
		"imprint" : 0,
		"enablehscroll" : 1,
		"enablevscroll" : 1,
		"devicewidth" : 0.0,
		"description" : "",
		"digest" : "",
		"tags" : "",
		"boxes" : [ 			{
				"box" : 				{
					"fontname" : "Arial",
					"fontsize" : 11.595187,
					"frgb" : 0.0,
					"id" : "obj-9",
					"linecount" : 2,
					"maxclass" : "comment",
					"numinlets" : 1,
					"numoutlets" : 0,
					"patching_rect" : [ 980.75, 619.5, 74.0, 32.0 ],
					"presentation_rect" : [ 979.5, 623.5, 0.0, 0.0 ],
					"text" : "clinical test signal"
				}

			}
, 			{
				"box" : 				{
					"fontname" : "Arial",
					"fontsize" : 11.595187,
					"frgb" : 0.0,
					"id" : "obj-5",
					"maxclass" : "comment",
					"numinlets" : 1,
					"numoutlets" : 0,
					"patching_rect" : [ 696.0, 238.0, 82.0, 19.0 ],
					"presentation_rect" : [ 695.0, 241.0, 0.0, 0.0 ],
					"text" : "SMOOTHING"
				}

			}
, 			{
				"box" : 				{
					"fontname" : "Arial",
					"fontsize" : 11.595187,
					"id" : "obj-48",
					"maxclass" : "newobj",
					"numinlets" : 0,
					"numoutlets" : 1,
					"outlettype" : [ "" ],
					"patching_rect" : [ 731.5, 362.0, 40.0, 19.0 ],
					"text" : "r beat"
				}

			}
, 			{
				"box" : 				{
					"fontname" : "Arial",
					"fontsize" : 11.595187,
					"id" : "obj-39",
					"maxclass" : "newobj",
					"numinlets" : 0,
					"numoutlets" : 1,
					"outlettype" : [ "" ],
					"patching_rect" : [ 1220.25, 227.5, 40.0, 19.0 ],
					"text" : "r beat"
				}

			}
, 			{
				"box" : 				{
					"fontname" : "Arial",
					"fontsize" : 11.595187,
					"id" : "obj-36",
					"maxclass" : "newobj",
					"numinlets" : 0,
					"numoutlets" : 1,
					"outlettype" : [ "" ],
					"patching_rect" : [ 965.75, 188.0, 40.0, 19.0 ],
					"text" : "r beat"
				}

			}
, 			{
				"box" : 				{
					"fontname" : "Arial",
					"fontsize" : 11.595187,
					"id" : "obj-35",
					"maxclass" : "newobj",
					"numinlets" : 0,
					"numoutlets" : 1,
					"outlettype" : [ "" ],
					"patcher" : 					{
						"fileversion" : 1,
						"appversion" : 						{
							"major" : 6,
							"minor" : 1,
							"revision" : 10,
							"architecture" : "x86"
						}
,
						"rect" : [ 25.0, 70.0, 640.0, 480.0 ],
						"bglocked" : 0,
						"openinpresentation" : 0,
						"default_fontsize" : 12.0,
						"default_fontface" : 0,
						"default_fontname" : "Arial",
						"gridonopen" : 0,
						"gridsize" : [ 15.0, 15.0 ],
						"gridsnaponopen" : 0,
						"statusbarvisible" : 2,
						"toolbarvisible" : 1,
						"boxanimatetime" : 200,
						"imprint" : 0,
						"enablehscroll" : 1,
						"enablevscroll" : 1,
						"devicewidth" : 0.0,
						"description" : "",
						"digest" : "",
						"tags" : "",
						"boxes" : [ 							{
								"box" : 								{
									"fontname" : "Arial",
									"fontsize" : 11.595187,
									"frgb" : 0.0,
									"id" : "obj-79",
									"maxclass" : "comment",
									"numinlets" : 1,
									"numoutlets" : 0,
									"patching_rect" : [ 257.5, 174.0, 84.0, 19.0 ],
									"text" : "range +/- 20%"
								}

							}
, 							{
								"box" : 								{
									"fontname" : "Arial",
									"fontsize" : 11.595187,
									"id" : "obj-91",
									"maxclass" : "newobj",
									"numinlets" : 1,
									"numoutlets" : 0,
									"patching_rect" : [ 216.75, 343.0, 85.0, 19.0 ],
									"text" : "s peakRanged"
								}

							}
, 							{
								"box" : 								{
									"fontname" : "Arial",
									"fontsize" : 11.595187,
									"id" : "obj-90",
									"maxclass" : "newobj",
									"numinlets" : 1,
									"numoutlets" : 0,
									"patching_rect" : [ 36.0, 343.0, 93.0, 19.0 ],
									"text" : "s troughRanged"
								}

							}
, 							{
								"box" : 								{
									"fontname" : "Arial",
									"fontsize" : 11.595187,
									"id" : "obj-58",
									"maxclass" : "newobj",
									"numinlets" : 1,
									"numoutlets" : 2,
									"outlettype" : [ "float", "float" ],
									"patching_rect" : [ 143.75, 128.5, 37.0, 19.0 ],
									"text" : "t f f"
								}

							}
, 							{
								"box" : 								{
									"fontname" : "Arial",
									"fontsize" : 11.595187,
									"id" : "obj-55",
									"maxclass" : "newobj",
									"numinlets" : 1,
									"numoutlets" : 2,
									"outlettype" : [ "float", "float" ],
									"patching_rect" : [ 216.75, 128.5, 37.0, 19.0 ],
									"text" : "t f f"
								}

							}
, 							{
								"box" : 								{
									"fontname" : "Arial",
									"fontsize" : 11.595187,
									"id" : "obj-54",
									"maxclass" : "newobj",
									"numinlets" : 0,
									"numoutlets" : 1,
									"outlettype" : [ "" ],
									"patching_rect" : [ 216.75, 102.5, 43.0, 19.0 ],
									"text" : "r peak"
								}

							}
, 							{
								"box" : 								{
									"fontname" : "Arial",
									"fontsize" : 11.595187,
									"id" : "obj-52",
									"maxclass" : "newobj",
									"numinlets" : 0,
									"numoutlets" : 1,
									"outlettype" : [ "" ],
									"patching_rect" : [ 143.75, 102.5, 50.0, 19.0 ],
									"text" : "r trough"
								}

							}
, 							{
								"box" : 								{
									"fontname" : "Arial",
									"fontsize" : 11.595187,
									"id" : "obj-36",
									"maxclass" : "newobj",
									"numinlets" : 2,
									"numoutlets" : 1,
									"outlettype" : [ "float" ],
									"patching_rect" : [ 143.75, 207.75, 32.5, 19.0 ],
									"text" : "- 0."
								}

							}
, 							{
								"box" : 								{
									"fontname" : "Arial",
									"fontsize" : 11.595187,
									"id" : "obj-35",
									"maxclass" : "newobj",
									"numinlets" : 2,
									"numoutlets" : 1,
									"outlettype" : [ "float" ],
									"patching_rect" : [ 216.75, 207.75, 37.0, 19.0 ],
									"text" : "+ 0.2"
								}

							}
, 							{
								"box" : 								{
									"fontname" : "Arial",
									"fontsize" : 11.595187,
									"id" : "obj-31",
									"maxclass" : "newobj",
									"numinlets" : 2,
									"numoutlets" : 1,
									"outlettype" : [ "float" ],
									"patching_rect" : [ 161.75, 174.0, 34.0, 19.0 ],
									"text" : "* 0.2"
								}

							}
, 							{
								"box" : 								{
									"fontname" : "Arial",
									"fontsize" : 11.595187,
									"id" : "obj-26",
									"maxclass" : "newobj",
									"numinlets" : 2,
									"numoutlets" : 1,
									"outlettype" : [ "float" ],
									"patching_rect" : [ 205.75, 174.0, 34.0, 19.0 ],
									"text" : "* 0.2"
								}

							}
, 							{
								"box" : 								{
									"fontname" : "Arial",
									"fontsize" : 11.595187,
									"id" : "obj-24",
									"maxclass" : "newobj",
									"numinlets" : 2,
									"numoutlets" : 1,
									"outlettype" : [ "" ],
									"patching_rect" : [ 143.75, 238.5, 48.0, 19.0 ],
									"text" : "pack f f"
								}

							}
, 							{
								"box" : 								{
									"fontname" : "Arial",
									"fontsize" : 11.595187,
									"id" : "obj-14",
									"maxclass" : "message",
									"numinlets" : 2,
									"numoutlets" : 1,
									"outlettype" : [ "" ],
									"patching_rect" : [ 143.75, 295.5, 72.0, 17.0 ],
									"text" : "range $1 $2"
								}

							}
, 							{
								"box" : 								{
									"comment" : "",
									"id" : "obj-33",
									"maxclass" : "outlet",
									"numinlets" : 1,
									"numoutlets" : 0,
									"patching_rect" : [ 143.75, 343.0, 25.0, 25.0 ]
								}

							}
 ],
						"lines" : [ 							{
								"patchline" : 								{
									"destination" : [ "obj-33", 0 ],
									"disabled" : 0,
									"hidden" : 0,
									"source" : [ "obj-14", 0 ]
								}

							}
, 							{
								"patchline" : 								{
									"destination" : [ "obj-14", 0 ],
									"disabled" : 0,
									"hidden" : 0,
									"source" : [ "obj-24", 0 ]
								}

							}
, 							{
								"patchline" : 								{
									"destination" : [ "obj-35", 0 ],
									"disabled" : 0,
									"hidden" : 0,
									"source" : [ "obj-26", 0 ]
								}

							}
, 							{
								"patchline" : 								{
									"destination" : [ "obj-36", 1 ],
									"disabled" : 0,
									"hidden" : 0,
									"source" : [ "obj-31", 0 ]
								}

							}
, 							{
								"patchline" : 								{
									"destination" : [ "obj-24", 1 ],
									"disabled" : 0,
									"hidden" : 0,
									"source" : [ "obj-35", 0 ]
								}

							}
, 							{
								"patchline" : 								{
									"destination" : [ "obj-91", 0 ],
									"disabled" : 0,
									"hidden" : 0,
									"source" : [ "obj-35", 0 ]
								}

							}
, 							{
								"patchline" : 								{
									"destination" : [ "obj-24", 0 ],
									"disabled" : 0,
									"hidden" : 0,
									"source" : [ "obj-36", 0 ]
								}

							}
, 							{
								"patchline" : 								{
									"destination" : [ "obj-90", 0 ],
									"disabled" : 0,
									"hidden" : 0,
									"midpoints" : [ 153.25, 232.375, 45.5, 232.375 ],
									"source" : [ "obj-36", 0 ]
								}

							}
, 							{
								"patchline" : 								{
									"destination" : [ "obj-58", 0 ],
									"disabled" : 0,
									"hidden" : 0,
									"source" : [ "obj-52", 0 ]
								}

							}
, 							{
								"patchline" : 								{
									"destination" : [ "obj-55", 0 ],
									"disabled" : 0,
									"hidden" : 0,
									"source" : [ "obj-54", 0 ]
								}

							}
, 							{
								"patchline" : 								{
									"destination" : [ "obj-26", 0 ],
									"disabled" : 0,
									"hidden" : 0,
									"source" : [ "obj-55", 0 ]
								}

							}
, 							{
								"patchline" : 								{
									"destination" : [ "obj-35", 1 ],
									"disabled" : 0,
									"hidden" : 0,
									"source" : [ "obj-55", 1 ]
								}

							}
, 							{
								"patchline" : 								{
									"destination" : [ "obj-31", 0 ],
									"disabled" : 0,
									"hidden" : 0,
									"source" : [ "obj-58", 1 ]
								}

							}
, 							{
								"patchline" : 								{
									"destination" : [ "obj-36", 0 ],
									"disabled" : 0,
									"hidden" : 0,
									"source" : [ "obj-58", 0 ]
								}

							}
 ]
					}
,
					"patching_rect" : [ 467.0, 307.5, 54.0, 19.0 ],
					"saved_object_attributes" : 					{
						"default_fontface" : 0,
						"default_fontname" : "Arial",
						"default_fontsize" : 12.0,
						"description" : "",
						"digest" : "",
						"fontface" : 0,
						"fontname" : "Arial",
						"fontsize" : 12.0,
						"globalpatchername" : "",
						"tags" : ""
					}
,
					"text" : "p ranger"
				}

			}
, 			{
				"box" : 				{
					"fontname" : "Arial",
					"fontsize" : 11.595187,
					"id" : "obj-125",
					"maxclass" : "message",
					"numinlets" : 2,
					"numoutlets" : 1,
					"outlettype" : [ "" ],
					"patching_rect" : [ 766.25, 401.75, 65.25, 17.0 ],
					"text" : "0.028759"
				}

			}
, 			{
				"box" : 				{
					"fontname" : "Arial",
					"fontsize" : 11.595187,
					"frgb" : 0.0,
					"id" : "obj-124",
					"linecount" : 2,
					"maxclass" : "comment",
					"numinlets" : 1,
					"numoutlets" : 0,
					"patching_rect" : [ 361.0, 272.25, 106.0, 32.0 ],
					"text" : "3. set range for visualisation"
				}

			}
, 			{
				"box" : 				{
					"fontname" : "Arial",
					"fontsize" : 11.595187,
					"frgb" : 0.0,
					"id" : "obj-122",
					"maxclass" : "comment",
					"numinlets" : 1,
					"numoutlets" : 0,
					"patching_rect" : [ 312.0, 521.0, 103.0, 19.0 ],
					"text" : "SMOOTHED"
				}

			}
, 			{
				"box" : 				{
					"fontname" : "Arial",
					"fontsize" : 11.595187,
					"id" : "obj-121",
					"maxclass" : "message",
					"numinlets" : 2,
					"numoutlets" : 1,
					"outlettype" : [ "" ],
					"patching_rect" : [ 1066.75, 369.0, 65.25, 17.0 ],
					"text" : "0.01494"
				}

			}
, 			{
				"box" : 				{
					"fontname" : "Arial",
					"fontsize" : 11.595187,
					"id" : "obj-120",
					"maxclass" : "newobj",
					"numinlets" : 1,
					"numoutlets" : 0,
					"patching_rect" : [ 1066.75, 429.0, 52.0, 19.0 ],
					"text" : "s trough"
				}

			}
, 			{
				"box" : 				{
					"candicane2" : [ 0.145098, 0.203922, 0.356863, 1.0 ],
					"candicane3" : [ 0.290196, 0.411765, 0.713726, 1.0 ],
					"candicane4" : [ 0.439216, 0.619608, 0.070588, 1.0 ],
					"candicane5" : [ 0.584314, 0.827451, 0.431373, 1.0 ],
					"candicane6" : [ 0.733333, 0.035294, 0.788235, 1.0 ],
					"candicane7" : [ 0.878431, 0.243137, 0.145098, 1.0 ],
					"candicane8" : [ 0.027451, 0.447059, 0.501961, 1.0 ],
					"id" : "obj-117",
					"maxclass" : "multislider",
					"numinlets" : 1,
					"numoutlets" : 2,
					"outlettype" : [ "", "" ],
					"parameter_enable" : 0,
					"patching_rect" : [ 307.0, 546.5, 341.0, 119.0 ],
					"peakcolor" : [ 0.498039, 0.498039, 0.498039, 1.0 ],
					"setminmax" : [ 0.013993, 0.044915 ],
					"setstyle" : 5
				}

			}
, 			{
				"box" : 				{
					"fontname" : "Arial",
					"fontsize" : 11.595187,
					"id" : "obj-116",
					"maxclass" : "flonum",
					"numinlets" : 1,
					"numoutlets" : 2,
					"outlettype" : [ "float", "bang" ],
					"parameter_enable" : 0,
					"patching_rect" : [ 656.0, 285.5, 50.0, 19.0 ]
				}

			}
, 			{
				"box" : 				{
					"fontname" : "Arial",
					"fontsize" : 11.595187,
					"id" : "obj-114",
					"maxclass" : "message",
					"numinlets" : 2,
					"numoutlets" : 1,
					"outlettype" : [ "" ],
					"patching_rect" : [ 656.0, 238.0, 40.0, 17.0 ],
					"text" : "$1 50"
				}

			}
, 			{
				"box" : 				{
					"fontname" : "Arial",
					"fontsize" : 11.595187,
					"id" : "obj-112",
					"maxclass" : "newobj",
					"numinlets" : 3,
					"numoutlets" : 2,
					"outlettype" : [ "", "" ],
					"patching_rect" : [ 656.0, 262.0, 46.0, 19.0 ],
					"text" : "line 0."
				}

			}
, 			{
				"box" : 				{
					"fontname" : "Arial",
					"fontsize" : 11.595187,
					"id" : "obj-102",
					"maxclass" : "newobj",
					"numinlets" : 1,
					"numoutlets" : 0,
					"patching_rect" : [ 970.5, 491.5, 42.0, 19.0 ],
					"text" : "s beat"
				}

			}
, 			{
				"box" : 				{
					"fontname" : "Arial",
					"fontsize" : 11.595187,
					"id" : "obj-101",
					"maxclass" : "newobj",
					"numinlets" : 2,
					"numoutlets" : 1,
					"outlettype" : [ "" ],
					"patching_rect" : [ 1174.0, 401.75, 79.0, 19.0 ],
					"text" : "speedlim 300"
				}

			}
, 			{
				"box" : 				{
					"fontname" : "Arial",
					"fontsize" : 11.595187,
					"frgb" : 0.0,
					"id" : "obj-97",
					"linecount" : 2,
					"maxclass" : "comment",
					"numinlets" : 1,
					"numoutlets" : 0,
					"patching_rect" : [ 48.0, 468.5, 58.0, 32.0 ],
					"text" : "TODO  : scaling"
				}

			}
, 			{
				"box" : 				{
					"floatoutput" : 1,
					"id" : "obj-78",
					"maxclass" : "slider",
					"numinlets" : 1,
					"numoutlets" : 1,
					"outlettype" : [ "" ],
					"parameter_enable" : 0,
					"patching_rect" : [ 70.0, 544.0, 22.0, 114.0 ],
					"size" : 2.0
				}

			}
, 			{
				"box" : 				{
					"fontname" : "Arial",
					"fontsize" : 11.595187,
					"id" : "obj-77",
					"maxclass" : "newobj",
					"numinlets" : 0,
					"numoutlets" : 1,
					"outlettype" : [ "" ],
					"patching_rect" : [ 112.0, 412.0, 91.0, 19.0 ],
					"text" : "r troughRanged"
				}

			}
, 			{
				"box" : 				{
					"fontname" : "Arial",
					"fontsize" : 11.595187,
					"id" : "obj-74",
					"maxclass" : "newobj",
					"numinlets" : 0,
					"numoutlets" : 1,
					"outlettype" : [ "" ],
					"patching_rect" : [ 126.0, 442.0, 83.0, 19.0 ],
					"text" : "r peakRanged"
				}

			}
, 			{
				"box" : 				{
					"fontname" : "Arial",
					"fontsize" : 11.595187,
					"id" : "obj-63",
					"maxclass" : "newobj",
					"numinlets" : 6,
					"numoutlets" : 1,
					"outlettype" : [ "" ],
					"patching_rect" : [ 70.0, 508.5, 89.0, 19.0 ],
					"text" : "scale 0. 1. 0. 1."
				}

			}
, 			{
				"box" : 				{
					"fontname" : "Arial",
					"fontsize" : 11.595187,
					"id" : "obj-59",
					"maxclass" : "newobj",
					"numinlets" : 2,
					"numoutlets" : 1,
					"outlettype" : [ "float" ],
					"patching_rect" : [ 263.5, 362.0, 47.0, 19.0 ],
					"text" : "* 1000."
				}

			}
, 			{
				"box" : 				{
					"fontname" : "Arial",
					"fontsize" : 11.595187,
					"id" : "obj-89",
					"maxclass" : "newobj",
					"numinlets" : 0,
					"numoutlets" : 1,
					"outlettype" : [ "" ],
					"patching_rect" : [ 1174.0, 219.0, 43.0, 19.0 ],
					"text" : "r reset"
				}

			}
, 			{
				"box" : 				{
					"fontname" : "Arial",
					"fontsize" : 11.595187,
					"id" : "obj-82",
					"maxclass" : "message",
					"numinlets" : 2,
					"numoutlets" : 1,
					"outlettype" : [ "" ],
					"patching_rect" : [ 1174.0, 294.0, 32.5, 17.0 ],
					"text" : "1."
				}

			}
, 			{
				"box" : 				{
					"id" : "obj-80",
					"maxclass" : "button",
					"numinlets" : 1,
					"numoutlets" : 1,
					"outlettype" : [ "bang" ],
					"patching_rect" : [ 874.0, 254.0, 35.0, 35.0 ]
				}

			}
, 			{
				"box" : 				{
					"fontname" : "Arial",
					"fontsize" : 11.595187,
					"id" : "obj-81",
					"maxclass" : "newobj",
					"numinlets" : 0,
					"numoutlets" : 1,
					"outlettype" : [ "" ],
					"patching_rect" : [ 874.0, 226.0, 43.0, 19.0 ],
					"text" : "r reset"
				}

			}
, 			{
				"box" : 				{
					"id" : "obj-76",
					"maxclass" : "button",
					"numinlets" : 1,
					"numoutlets" : 1,
					"outlettype" : [ "bang" ],
					"patching_rect" : [ 965.75, 226.5, 20.0, 20.0 ]
				}

			}
, 			{
				"box" : 				{
					"fontname" : "Arial",
					"fontsize" : 11.595187,
					"id" : "obj-64",
					"maxclass" : "newobj",
					"numinlets" : 0,
					"numoutlets" : 1,
					"outlettype" : [ "" ],
					"patching_rect" : [ 997.0, 429.0, 43.0, 19.0 ],
					"text" : "r reset"
				}

			}
, 			{
				"box" : 				{
					"id" : "obj-60",
					"maxclass" : "button",
					"numinlets" : 1,
					"numoutlets" : 1,
					"outlettype" : [ "bang" ],
					"patching_rect" : [ 353.5, 307.5, 20.0, 20.0 ]
				}

			}
, 			{
				"box" : 				{
					"fontname" : "Arial",
					"fontsize" : 11.595187,
					"id" : "obj-51",
					"maxclass" : "newobj",
					"numinlets" : 2,
					"numoutlets" : 2,
					"outlettype" : [ "bang", "bang" ],
					"patching_rect" : [ 928.75, 254.0, 56.0, 19.0 ],
					"text" : "onebang"
				}

			}
, 			{
				"box" : 				{
					"id" : "obj-50",
					"maxclass" : "button",
					"numinlets" : 1,
					"numoutlets" : 1,
					"outlettype" : [ "bang" ],
					"patching_rect" : [ 980.75, 112.0, 35.0, 35.0 ]
				}

			}
, 			{
				"box" : 				{
					"fontname" : "Arial",
					"fontsize" : 11.595187,
					"id" : "obj-47",
					"maxclass" : "newobj",
					"numinlets" : 1,
					"numoutlets" : 0,
					"patching_rect" : [ 980.75, 155.0, 45.0, 19.0 ],
					"text" : "s reset"
				}

			}
, 			{
				"box" : 				{
					"fontname" : "Arial",
					"fontsize" : 11.595187,
					"frgb" : 0.0,
					"id" : "obj-46",
					"maxclass" : "comment",
					"numinlets" : 1,
					"numoutlets" : 0,
					"patching_rect" : [ 1020.5, 116.0, 100.0, 19.0 ],
					"text" : "RESET BUTTON"
				}

			}
, 			{
				"box" : 				{
					"id" : "obj-43",
					"maxclass" : "button",
					"numinlets" : 1,
					"numoutlets" : 1,
					"outlettype" : [ "bang" ],
					"patching_rect" : [ 928.75, 282.5, 20.0, 20.0 ]
				}

			}
, 			{
				"box" : 				{
					"fontname" : "Arial",
					"fontsize" : 11.595187,
					"id" : "obj-40",
					"maxclass" : "newobj",
					"numinlets" : 0,
					"numoutlets" : 1,
					"outlettype" : [ "" ],
					"patching_rect" : [ 1030.25, 294.0, 91.0, 19.0 ],
					"text" : "r troughRanged"
				}

			}
, 			{
				"box" : 				{
					"fontname" : "Arial",
					"fontsize" : 11.595187,
					"id" : "obj-41",
					"maxclass" : "message",
					"numinlets" : 2,
					"numoutlets" : 1,
					"outlettype" : [ "" ],
					"patching_rect" : [ 928.75, 339.5, 120.5, 17.0 ],
					"text" : "0.011158"
				}

			}
, 			{
				"box" : 				{
					"fontname" : "Arial",
					"fontsize" : 11.595187,
					"id" : "obj-42",
					"maxclass" : "newobj",
					"numinlets" : 1,
					"numoutlets" : 2,
					"outlettype" : [ "bang", "bang" ],
					"patching_rect" : [ 928.75, 311.5, 33.0, 19.0 ],
					"text" : "t b b"
				}

			}
, 			{
				"box" : 				{
					"fontname" : "Arial",
					"fontsize" : 11.595187,
					"id" : "obj-25",
					"maxclass" : "newobj",
					"numinlets" : 0,
					"numoutlets" : 1,
					"outlettype" : [ "" ],
					"patching_rect" : [ 1321.75, 249.0, 83.0, 19.0 ],
					"text" : "r peakRanged"
				}

			}
, 			{
				"box" : 				{
					"fontname" : "Arial",
					"fontsize" : 11.595187,
					"id" : "obj-17",
					"maxclass" : "newobj",
					"numinlets" : 1,
					"numoutlets" : 0,
					"patching_rect" : [ 801.25, 434.0, 45.0, 19.0 ],
					"text" : "s peak"
				}

			}
, 			{
				"box" : 				{
					"fontname" : "Arial",
					"fontsize" : 11.595187,
					"frgb" : 0.0,
					"id" : "obj-16",
					"linecount" : 2,
					"maxclass" : "comment",
					"numinlets" : 1,
					"numoutlets" : 0,
					"patching_rect" : [ 1347.0, 273.5, 50.0, 32.0 ],
					"text" : "Current Peak"
				}

			}
, 			{
				"box" : 				{
					"fontname" : "Arial",
					"fontsize" : 11.595187,
					"id" : "obj-4",
					"linecount" : 2,
					"maxclass" : "message",
					"numinlets" : 2,
					"numoutlets" : 1,
					"outlettype" : [ "" ],
					"patching_rect" : [ 353.5, 341.5, 132.5, 30.0 ],
					"text" : "range 0.011158 0.034102"
				}

			}
, 			{
				"box" : 				{
					"fontname" : "Arial",
					"fontsize" : 11.595187,
					"id" : "obj-13",
					"maxclass" : "message",
					"numinlets" : 2,
					"numoutlets" : 1,
					"outlettype" : [ "" ],
					"patching_rect" : [ 340.0, 171.0, 92.0, 17.0 ],
					"text" : "range 0.02 0.03"
				}

			}
, 			{
				"box" : 				{
					"fontname" : "Arial",
					"fontsize" : 11.595187,
					"frgb" : 0.0,
					"id" : "obj-11",
					"maxclass" : "comment",
					"numinlets" : 1,
					"numoutlets" : 0,
					"patching_rect" : [ 45.0, 103.0, 272.0, 19.0 ],
					"text" : "1. make sure you select the heartlive as soundcard"
				}

			}
, 			{
				"box" : 				{
					"fontname" : "Arial",
					"fontsize" : 11.595187,
					"id" : "obj-12",
					"maxclass" : "flonum",
					"numinlets" : 1,
					"numoutlets" : 2,
					"outlettype" : [ "float", "bang" ],
					"parameter_enable" : 0,
					"patching_rect" : [ 819.25, 664.0, 50.0, 19.0 ]
				}

			}
, 			{
				"box" : 				{
					"fontname" : "Arial",
					"fontsize" : 11.595187,
					"frgb" : 0.0,
					"id" : "obj-88",
					"maxclass" : "comment",
					"numinlets" : 1,
					"numoutlets" : 0,
					"patching_rect" : [ 180.0, 124.0, 70.0, 19.0 ],
					"text" : "Raw signal\n"
				}

			}
, 			{
				"box" : 				{
					"fontname" : "Arial",
					"fontsize" : 11.595187,
					"id" : "obj-87",
					"maxclass" : "newobj",
					"numinlets" : 1,
					"numoutlets" : 1,
					"outlettype" : [ "signal" ],
					"patching_rect" : [ 180.0, 148.0, 134.0, 19.0 ],
					"text" : "receive~ heartliveSignal"
				}

			}
, 			{
				"box" : 				{
					"fontname" : "Arial",
					"fontsize" : 11.595187,
					"frgb" : 0.0,
					"id" : "obj-86",
					"maxclass" : "comment",
					"numinlets" : 1,
					"numoutlets" : 0,
					"patching_rect" : [ 838.5, 619.5, 74.0, 19.0 ],
					"text" : "Mean BPMs"
				}

			}
, 			{
				"box" : 				{
					"fontname" : "Arial",
					"fontsize" : 11.595187,
					"frgb" : 0.0,
					"id" : "obj-85",
					"maxclass" : "comment",
					"numinlets" : 1,
					"numoutlets" : 0,
					"patching_rect" : [ 774.75, 327.0, 99.0, 19.0 ],
					"text" : "DETECT PEAKS"
				}

			}
, 			{
				"box" : 				{
					"fontname" : "Arial",
					"fontsize" : 11.595187,
					"frgb" : 0.0,
					"id" : "obj-83",
					"linecount" : 2,
					"maxclass" : "comment",
					"numinlets" : 1,
					"numoutlets" : 0,
					"patching_rect" : [ 1030.25, 247.0, 50.0, 32.0 ],
					"text" : "Reset Peak"
				}

			}
, 			{
				"box" : 				{
					"fontname" : "Arial",
					"fontsize" : 11.595187,
					"id" : "obj-150",
					"maxclass" : "newobj",
					"numinlets" : 1,
					"numoutlets" : 0,
					"patching_rect" : [ 683.5, 203.0, 122.0, 19.0 ],
					"text" : "send~ heartliveSignal"
				}

			}
, 			{
				"box" : 				{
					"fontname" : "Arial",
					"fontsize" : 11.595187,
					"id" : "obj-27",
					"maxclass" : "newobj",
					"numinlets" : 1,
					"numoutlets" : 2,
					"outlettype" : [ "float", "float" ],
					"patching_rect" : [ 768.25, 619.5, 70.0, 19.0 ],
					"text" : "bpm"
				}

			}
, 			{
				"box" : 				{
					"fontname" : "Arial",
					"fontsize" : 11.595187,
					"id" : "obj-169",
					"maxclass" : "flonum",
					"numinlets" : 1,
					"numoutlets" : 2,
					"outlettype" : [ "float", "bang" ],
					"parameter_enable" : 0,
					"patching_rect" : [ 768.25, 664.0, 50.0, 19.0 ]
				}

			}
, 			{
				"box" : 				{
					"fontname" : "Arial",
					"fontsize" : 11.595187,
					"id" : "obj-156",
					"maxclass" : "newobj",
					"numinlets" : 2,
					"numoutlets" : 2,
					"outlettype" : [ "bang", "bang" ],
					"patching_rect" : [ 947.0, 465.0, 69.0, 19.0 ],
					"text" : "onebang"
				}

			}
, 			{
				"box" : 				{
					"fontname" : "Arial",
					"fontsize" : 11.595187,
					"id" : "obj-153",
					"maxclass" : "message",
					"numinlets" : 2,
					"numoutlets" : 1,
					"outlettype" : [ "" ],
					"patching_rect" : [ 1220.25, 282.5, 120.5, 17.0 ],
					"text" : "0.034511"
				}

			}
, 			{
				"box" : 				{
					"id" : "obj-152",
					"maxclass" : "button",
					"numinlets" : 1,
					"numoutlets" : 1,
					"outlettype" : [ "bang" ],
					"patching_rect" : [ 1174.0, 457.0, 20.0, 20.0 ]
				}

			}
, 			{
				"box" : 				{
					"fontname" : "Arial",
					"fontsize" : 11.595187,
					"id" : "obj-151",
					"maxclass" : "newobj",
					"numinlets" : 2,
					"numoutlets" : 2,
					"outlettype" : [ "bang", "" ],
					"patching_rect" : [ 1174.0, 429.0, 50.0, 19.0 ],
					"text" : "select 1"
				}

			}
, 			{
				"box" : 				{
					"fontname" : "Arial",
					"fontsize" : 11.595187,
					"id" : "obj-148",
					"maxclass" : "newobj",
					"numinlets" : 1,
					"numoutlets" : 2,
					"outlettype" : [ "bang", "bang" ],
					"patching_rect" : [ 1220.25, 254.5, 33.0, 19.0 ],
					"text" : "t b b"
				}

			}
, 			{
				"box" : 				{
					"fontname" : "Arial",
					"fontsize" : 11.595187,
					"id" : "obj-137",
					"maxclass" : "newobj",
					"numinlets" : 2,
					"numoutlets" : 3,
					"outlettype" : [ "float", "int", "int" ],
					"patching_rect" : [ 1082.0, 339.5, 111.0, 19.0 ],
					"text" : "trough 1."
				}

			}
, 			{
				"box" : 				{
					"id" : "obj-138",
					"maxclass" : "toggle",
					"numinlets" : 1,
					"numoutlets" : 1,
					"outlettype" : [ "int" ],
					"parameter_enable" : 0,
					"patching_rect" : [ 1133.0, 369.0, 20.0, 20.0 ]
				}

			}
, 			{
				"box" : 				{
					"id" : "obj-44",
					"maxclass" : "toggle",
					"numinlets" : 1,
					"numoutlets" : 1,
					"outlettype" : [ "int" ],
					"parameter_enable" : 0,
					"patching_rect" : [ 1174.0, 369.0, 20.0, 20.0 ]
				}

			}
, 			{
				"box" : 				{
					"fontname" : "Arial",
					"fontsize" : 11.595187,
					"frgb" : 0.0,
					"id" : "obj-139",
					"linecount" : 2,
					"maxclass" : "comment",
					"numinlets" : 1,
					"numoutlets" : 0,
					"patching_rect" : [ 1132.0, 390.0, 45.0, 32.0 ],
					"text" : "New Trough"
				}

			}
, 			{
				"box" : 				{
					"fontname" : "Arial",
					"fontsize" : 11.595187,
					"frgb" : 0.0,
					"id" : "obj-140",
					"linecount" : 2,
					"maxclass" : "comment",
					"numinlets" : 1,
					"numoutlets" : 0,
					"patching_rect" : [ 1082.0, 390.0, 50.0, 32.0 ],
					"text" : "Current Trough"
				}

			}
, 			{
				"box" : 				{
					"fontname" : "Arial",
					"fontsize" : 11.595187,
					"frgb" : 0.0,
					"id" : "obj-141",
					"linecount" : 4,
					"maxclass" : "comment",
					"numinlets" : 1,
					"numoutlets" : 0,
					"patching_rect" : [ 1200.0, 339.5, 63.0, 58.0 ],
					"text" : "lowest opens onebang\nof peaks"
				}

			}
, 			{
				"box" : 				{
					"id" : "obj-135",
					"maxclass" : "button",
					"numinlets" : 1,
					"numoutlets" : 1,
					"outlettype" : [ "bang" ],
					"patching_rect" : [ 947.0, 491.5, 20.0, 20.0 ]
				}

			}
, 			{
				"box" : 				{
					"fontname" : "Arial",
					"fontsize" : 11.595187,
					"id" : "obj-134",
					"maxclass" : "newobj",
					"numinlets" : 2,
					"numoutlets" : 2,
					"outlettype" : [ "bang", "" ],
					"patching_rect" : [ 947.0, 429.0, 50.0, 19.0 ],
					"text" : "select 1"
				}

			}
, 			{
				"box" : 				{
					"fontname" : "Arial",
					"fontsize" : 11.595187,
					"id" : "obj-132",
					"maxclass" : "message",
					"numinlets" : 2,
					"numoutlets" : 1,
					"outlettype" : [ "" ],
					"patching_rect" : [ 874.0, 339.5, 32.5, 17.0 ],
					"text" : "0."
				}

			}
, 			{
				"box" : 				{
					"fontname" : "Arial",
					"fontsize" : 11.595187,
					"id" : "obj-126",
					"maxclass" : "newobj",
					"numinlets" : 2,
					"numoutlets" : 3,
					"outlettype" : [ "float", "int", "int" ],
					"patching_rect" : [ 781.5, 362.0, 144.375, 19.0 ],
					"text" : "peak -1."
				}

			}
, 			{
				"box" : 				{
					"id" : "obj-127",
					"maxclass" : "toggle",
					"numinlets" : 1,
					"numoutlets" : 1,
					"outlettype" : [ "int" ],
					"parameter_enable" : 0,
					"patching_rect" : [ 846.0, 390.0, 20.0, 20.0 ]
				}

			}
, 			{
				"box" : 				{
					"id" : "obj-128",
					"maxclass" : "toggle",
					"numinlets" : 1,
					"numoutlets" : 1,
					"outlettype" : [ "int" ],
					"parameter_enable" : 0,
					"patching_rect" : [ 947.0, 391.0, 20.0, 20.0 ]
				}

			}
, 			{
				"box" : 				{
					"fontname" : "Arial",
					"fontsize" : 11.595187,
					"frgb" : 0.0,
					"id" : "obj-129",
					"linecount" : 2,
					"maxclass" : "comment",
					"numinlets" : 1,
					"numoutlets" : 0,
					"patching_rect" : [ 781.5, 415.0, 50.0, 32.0 ],
					"text" : "Current Peak"
				}

			}
, 			{
				"box" : 				{
					"fontname" : "Arial",
					"fontsize" : 11.595187,
					"frgb" : 0.0,
					"id" : "obj-34",
					"linecount" : 2,
					"maxclass" : "comment",
					"numinlets" : 1,
					"numoutlets" : 0,
					"patching_rect" : [ 838.5, 415.0, 35.0, 32.0 ],
					"text" : "New Peak"
				}

			}
, 			{
				"box" : 				{
					"fontname" : "Arial",
					"fontsize" : 11.595187,
					"frgb" : 0.0,
					"id" : "obj-130",
					"linecount" : 2,
					"maxclass" : "comment",
					"numinlets" : 1,
					"numoutlets" : 0,
					"patching_rect" : [ 970.5, 385.0, 76.5, 32.0 ],
					"text" : "End of Peak sends bang"
				}

			}
, 			{
				"box" : 				{
					"id" : "obj-123",
					"maxclass" : "button",
					"numinlets" : 1,
					"numoutlets" : 1,
					"outlettype" : [ "bang" ],
					"patching_rect" : [ 768.25, 579.5, 20.0, 20.0 ]
				}

			}
, 			{
				"box" : 				{
					"fontname" : "Arial",
					"fontsize" : 11.595187,
					"id" : "obj-111",
					"maxclass" : "newobj",
					"numinlets" : 2,
					"numoutlets" : 1,
					"outlettype" : [ "bang" ],
					"patching_rect" : [ 884.5, 542.0, 54.0, 19.0 ],
					"text" : "delay 33"
				}

			}
, 			{
				"box" : 				{
					"fontname" : "Arial",
					"fontsize" : 11.595187,
					"id" : "obj-105",
					"maxclass" : "message",
					"numinlets" : 2,
					"numoutlets" : 1,
					"outlettype" : [ "" ],
					"patching_rect" : [ 884.5, 567.5, 32.5, 17.0 ],
					"text" : "0"
				}

			}
, 			{
				"box" : 				{
					"fontname" : "Arial",
					"fontsize" : 11.595187,
					"id" : "obj-104",
					"maxclass" : "message",
					"numinlets" : 2,
					"numoutlets" : 1,
					"outlettype" : [ "" ],
					"patching_rect" : [ 947.0, 567.5, 32.5, 17.0 ],
					"text" : "1"
				}

			}
, 			{
				"box" : 				{
					"fontname" : "Arial",
					"fontsize" : 11.595187,
					"id" : "obj-99",
					"maxclass" : "newobj",
					"numinlets" : 2,
					"numoutlets" : 1,
					"outlettype" : [ "signal" ],
					"patching_rect" : [ 947.0, 594.0, 40.0, 19.0 ],
					"text" : "gate~"
				}

			}
, 			{
				"box" : 				{
					"id" : "obj-98",
					"maxclass" : "ezdac~",
					"numinlets" : 2,
					"numoutlets" : 0,
					"patching_rect" : [ 945.0, 768.5, 45.0, 45.0 ]
				}

			}
, 			{
				"box" : 				{
					"id" : "obj-96",
					"maxclass" : "gain~",
					"numinlets" : 2,
					"numoutlets" : 2,
					"outlettype" : [ "signal", "int" ],
					"parameter_enable" : 0,
					"patching_rect" : [ 948.5, 619.5, 20.0, 140.0 ]
				}

			}
, 			{
				"box" : 				{
					"fontname" : "Arial",
					"fontsize" : 11.595187,
					"id" : "obj-95",
					"maxclass" : "newobj",
					"numinlets" : 2,
					"numoutlets" : 1,
					"outlettype" : [ "signal" ],
					"patching_rect" : [ 980.75, 543.0, 66.0, 19.0 ],
					"text" : "cycle~ 220"
				}

			}
, 			{
				"box" : 				{
					"candicane2" : [ 0.145098, 0.203922, 0.356863, 1.0 ],
					"candicane3" : [ 0.290196, 0.411765, 0.713726, 1.0 ],
					"candicane4" : [ 0.439216, 0.619608, 0.070588, 1.0 ],
					"candicane5" : [ 0.584314, 0.827451, 0.431373, 1.0 ],
					"candicane6" : [ 0.733333, 0.035294, 0.788235, 1.0 ],
					"candicane7" : [ 0.878431, 0.243137, 0.145098, 1.0 ],
					"candicane8" : [ 0.027451, 0.447059, 0.501961, 1.0 ],
					"id" : "obj-57",
					"maxclass" : "multislider",
					"numinlets" : 1,
					"numoutlets" : 2,
					"outlettype" : [ "", "" ],
					"parameter_enable" : 0,
					"patching_rect" : [ 307.0, 386.5, 341.0, 122.5 ],
					"peakcolor" : [ 0.498039, 0.498039, 0.498039, 1.0 ],
					"setminmax" : [ 0.013993, 0.044915 ],
					"setstyle" : 5
				}

			}
, 			{
				"box" : 				{
					"id" : "obj-56",
					"maxclass" : "slider",
					"min" : -2.0,
					"numinlets" : 1,
					"numoutlets" : 1,
					"outlettype" : [ "" ],
					"parameter_enable" : 0,
					"patching_rect" : [ 263.5, 386.5, 22.0, 114.0 ],
					"size" : 40.0
				}

			}
, 			{
				"box" : 				{
					"fontname" : "Arial",
					"fontsize" : 11.595187,
					"id" : "obj-53",
					"interval" : 20.0,
					"maxclass" : "number~",
					"mode" : 2,
					"numinlets" : 2,
					"numoutlets" : 2,
					"outlettype" : [ "signal", "float" ],
					"patching_rect" : [ 619.0, 203.0, 56.0, 19.0 ],
					"sig" : 0.0
				}

			}
, 			{
				"box" : 				{
					"fontname" : "Arial",
					"fontsize" : 12.0,
					"id" : "obj-3",
					"maxclass" : "newobj",
					"numinlets" : 1,
					"numoutlets" : 2,
					"outlettype" : [ "signal", "signal" ],
					"patching_rect" : [ 648.0, 138.0, 37.0, 20.0 ],
					"text" : "adc~"
				}

			}
, 			{
				"box" : 				{
					"bgcolor" : [ 0.0, 0.0, 0.0, 0.0 ],
					"border" : 2,
					"bordercolor" : [ 0.6, 0.6, 0.6, 0.75 ],
					"id" : "obj-28",
					"maxclass" : "panel",
					"numinlets" : 1,
					"numoutlets" : 0,
					"patching_rect" : [ 28.0, 12.0, 31.0, 31.0 ],
					"varname" : "autohelp_top_picture_panel"
				}

			}
, 			{
				"box" : 				{
					"id" : "obj-30",
					"local" : 1,
					"maxclass" : "ezadc~",
					"numinlets" : 1,
					"numoutlets" : 2,
					"outlettype" : [ "signal", "signal" ],
					"patching_rect" : [ 93.0, 133.0, 45.0, 45.0 ],
					"varname" : "autohelp_dac"
				}

			}
, 			{
				"box" : 				{
					"fontname" : "Arial",
					"fontsize" : 11.595187,
					"frgb" : 0.0,
					"id" : "obj-1",
					"linecount" : 2,
					"maxclass" : "comment",
					"numinlets" : 1,
					"numoutlets" : 0,
					"patching_rect" : [ 48.0, 138.0, 50.0, 32.0 ],
					"text" : "2 .start audio",
					"varname" : "autohelp_dac_text"
				}

			}
, 			{
				"box" : 				{
					"bgcolor" : [ 1.0, 1.0, 1.0, 1.0 ],
					"border" : 2,
					"bordercolor" : [ 0.392157, 0.792157, 0.117647, 1.0 ],
					"id" : "obj-2",
					"maxclass" : "panel",
					"numinlets" : 1,
					"numoutlets" : 0,
					"patching_rect" : [ 45.0, 128.0, 100.0, 55.0 ],
					"varname" : "startwinwdow_panel"
				}

			}
, 			{
				"box" : 				{
					"fontname" : "Arial",
					"fontsize" : 11.595187,
					"id" : "obj-19",
					"maxclass" : "message",
					"numinlets" : 2,
					"numoutlets" : 1,
					"outlettype" : [ "" ],
					"patching_rect" : [ 322.0, 148.0, 83.0, 17.0 ],
					"text" : "range -0.1 0.1"
				}

			}
, 			{
				"box" : 				{
					"fontname" : "Arial",
					"fontsize" : 11.595187,
					"id" : "obj-20",
					"maxclass" : "message",
					"numinlets" : 2,
					"numoutlets" : 1,
					"outlettype" : [ "" ],
					"patching_rect" : [ 307.0, 124.0, 76.0, 17.0 ],
					"text" : "range -10 10"
				}

			}
, 			{
				"box" : 				{
					"fontname" : "Arial",
					"fontsize" : 11.595187,
					"id" : "obj-22",
					"maxclass" : "message",
					"numinlets" : 2,
					"numoutlets" : 1,
					"outlettype" : [ "" ],
					"patching_rect" : [ 619.0, 115.0, 18.0, 17.0 ],
					"text" : "1"
				}

			}
, 			{
				"box" : 				{
					"fontname" : "Arial",
					"fontsize" : 11.595187,
					"id" : "obj-23",
					"maxclass" : "newobj",
					"numinlets" : 3,
					"numoutlets" : 1,
					"outlettype" : [ "signal" ],
					"patching_rect" : [ 619.0, 165.0, 77.0, 19.0 ],
					"text" : "selector~ 2 1"
				}

			}
, 			{
				"box" : 				{
					"fontname" : "Arial",
					"fontsize" : 11.595187,
					"frgb" : 0.0,
					"id" : "obj-37",
					"maxclass" : "comment",
					"numinlets" : 1,
					"numoutlets" : 0,
					"patching_rect" : [ 638.0, 115.0, 108.0, 19.0 ],
					"text" : "audio / heartlive in"
				}

			}
, 			{
				"box" : 				{
					"fontname" : "Arial",
					"fontsize" : 11.595187,
					"frgb" : 0.0,
					"id" : "obj-45",
					"linecount" : 2,
					"maxclass" : "comment",
					"numinlets" : 1,
					"numoutlets" : 0,
					"patching_rect" : [ 340.0, 203.0, 133.0, 32.0 ],
					"text" : "ranges differ per person\n(find out how)"
				}

			}
, 			{
				"box" : 				{
					"bgcolor" : [ 0.529412, 0.529412, 0.529412, 1.0 ],
					"bufsize" : 8,
					"calccount" : 558,
					"delay" : 55.0,
					"id" : "obj-49",
					"maxclass" : "scope~",
					"numinlets" : 2,
					"numoutlets" : 0,
					"patching_rect" : [ 180.0, 199.0, 149.0, 99.0 ],
					"range" : [ -0.1, 0.1 ],
					"rounded" : 0
				}

			}
, 			{
				"box" : 				{
					"fontface" : 3,
					"fontname" : "Arial",
					"fontsize" : 20.871338,
					"frgb" : 0.0,
					"id" : "obj-6",
					"maxclass" : "comment",
					"numinlets" : 1,
					"numoutlets" : 0,
					"patching_rect" : [ 62.0, 13.0, 455.0, 30.0 ],
					"text" : "HEARTLIVE",
					"textcolor" : [ 0.2, 0.2, 0.2, 1.0 ],
					"varname" : "autohelp_top_title"
				}

			}
, 			{
				"box" : 				{
					"fontname" : "Arial",
					"fontsize" : 12.754705,
					"frgb" : 0.0,
					"id" : "obj-7",
					"maxclass" : "comment",
					"numinlets" : 1,
					"numoutlets" : 0,
					"patching_rect" : [ 28.0, 41.0, 485.0, 21.0 ],
					"text" : "HEARTLIVE HACK",
					"textcolor" : [ 0.2, 0.2, 0.2, 1.0 ],
					"varname" : "autohelp_top_digest"
				}

			}
, 			{
				"box" : 				{
					"fontname" : "Arial",
					"fontsize" : 11.595187,
					"frgb" : 0.0,
					"id" : "obj-8",
					"maxclass" : "comment",
					"numinlets" : 1,
					"numoutlets" : 0,
					"patching_rect" : [ 28.0, 62.0, 485.0, 19.0 ],
					"text" : "Description",
					"varname" : "autohelp_top_description"
				}

			}
, 			{
				"box" : 				{
					"autofit" : 1,
					"id" : "obj-29",
					"maxclass" : "fpic",
					"numinlets" : 1,
					"numoutlets" : 0,
					"patching_rect" : [ 32.0, 16.0, 23.0, 23.0 ],
					"pic" : "Macintosh HD:/Applications/Max5/Cycling '74/object-palettes/scope~.svg",
					"varname" : "autohelp_top_picture"
				}

			}
, 			{
				"box" : 				{
					"background" : 1,
					"grad1" : [ 0.88, 0.98, 0.78, 1.0 ],
					"grad2" : [ 0.9, 0.9, 0.9, 1.0 ],
					"id" : "obj-62",
					"maxclass" : "panel",
					"mode" : 1,
					"numinlets" : 1,
					"numoutlets" : 0,
					"patching_rect" : [ 1068.125, 320.5, 215.25, 169.5 ],
					"varname" : "autohelp_top_panel[2]"
				}

			}
, 			{
				"box" : 				{
					"background" : 1,
					"grad1" : [ 0.88, 0.98, 0.78, 1.0 ],
					"grad2" : [ 0.9, 0.9, 0.9, 1.0 ],
					"id" : "obj-61",
					"maxclass" : "panel",
					"mode" : 1,
					"numinlets" : 1,
					"numoutlets" : 0,
					"patching_rect" : [ 722.625, 320.5, 203.25, 181.5 ],
					"varname" : "autohelp_top_panel[1]"
				}

			}
, 			{
				"box" : 				{
					"background" : 1,
					"grad1" : [ 0.88, 0.98, 0.78, 1.0 ],
					"grad2" : [ 0.9, 0.9, 0.9, 1.0 ],
					"id" : "obj-32",
					"maxclass" : "panel",
					"mode" : 1,
					"numinlets" : 1,
					"numoutlets" : 0,
					"patching_rect" : [ 23.0, 10.0, 495.0, 52.0 ],
					"varname" : "autohelp_top_panel"
				}

			}
 ],
		"lines" : [ 			{
				"patchline" : 				{
					"destination" : [ "obj-151", 0 ],
					"disabled" : 0,
					"hidden" : 0,
					"source" : [ "obj-101", 0 ]
				}

			}
, 			{
				"patchline" : 				{
					"destination" : [ "obj-99", 0 ],
					"disabled" : 0,
					"hidden" : 0,
					"source" : [ "obj-104", 0 ]
				}

			}
, 			{
				"patchline" : 				{
					"destination" : [ "obj-99", 0 ],
					"disabled" : 0,
					"hidden" : 0,
					"midpoints" : [ 894.0, 592.75, 956.5, 592.75 ],
					"source" : [ "obj-105", 0 ]
				}

			}
, 			{
				"patchline" : 				{
					"destination" : [ "obj-105", 0 ],
					"disabled" : 0,
					"hidden" : 0,
					"source" : [ "obj-111", 0 ]
				}

			}
, 			{
				"patchline" : 				{
					"destination" : [ "obj-116", 0 ],
					"disabled" : 0,
					"hidden" : 0,
					"source" : [ "obj-112", 0 ]
				}

			}
, 			{
				"patchline" : 				{
					"destination" : [ "obj-112", 0 ],
					"disabled" : 0,
					"hidden" : 0,
					"source" : [ "obj-114", 0 ]
				}

			}
, 			{
				"patchline" : 				{
					"destination" : [ "obj-117", 0 ],
					"disabled" : 0,
					"hidden" : 0,
					"midpoints" : [ 665.5, 522.75, 316.5, 522.75 ],
					"source" : [ "obj-116", 0 ]
				}

			}
, 			{
				"patchline" : 				{
					"destination" : [ "obj-126", 0 ],
					"disabled" : 0,
					"hidden" : 0,
					"midpoints" : [ 665.5, 321.25, 791.0, 321.25 ],
					"source" : [ "obj-116", 0 ]
				}

			}
, 			{
				"patchline" : 				{
					"destination" : [ "obj-137", 0 ],
					"disabled" : 0,
					"hidden" : 0,
					"midpoints" : [ 665.5, 310.0, 1091.5, 310.0 ],
					"source" : [ "obj-116", 0 ]
				}

			}
, 			{
				"patchline" : 				{
					"destination" : [ "obj-120", 0 ],
					"disabled" : 0,
					"hidden" : 0,
					"source" : [ "obj-121", 0 ]
				}

			}
, 			{
				"patchline" : 				{
					"destination" : [ "obj-27", 0 ],
					"disabled" : 0,
					"hidden" : 0,
					"source" : [ "obj-123", 0 ]
				}

			}
, 			{
				"patchline" : 				{
					"destination" : [ "obj-17", 0 ],
					"disabled" : 0,
					"hidden" : 0,
					"source" : [ "obj-125", 0 ]
				}

			}
, 			{
				"patchline" : 				{
					"destination" : [ "obj-125", 1 ],
					"disabled" : 0,
					"hidden" : 0,
					"source" : [ "obj-126", 0 ]
				}

			}
, 			{
				"patchline" : 				{
					"destination" : [ "obj-127", 0 ],
					"disabled" : 0,
					"hidden" : 0,
					"midpoints" : [ 853.6875, 385.5, 855.5, 385.5 ],
					"source" : [ "obj-126", 1 ]
				}

			}
, 			{
				"patchline" : 				{
					"destination" : [ "obj-128", 0 ],
					"disabled" : 0,
					"hidden" : 0,
					"midpoints" : [ 916.375, 382.5, 956.5, 382.5 ],
					"source" : [ "obj-126", 2 ]
				}

			}
, 			{
				"patchline" : 				{
					"destination" : [ "obj-134", 0 ],
					"disabled" : 0,
					"hidden" : 0,
					"source" : [ "obj-128", 0 ]
				}

			}
, 			{
				"patchline" : 				{
					"destination" : [ "obj-49", 0 ],
					"disabled" : 0,
					"hidden" : 0,
					"source" : [ "obj-13", 0 ]
				}

			}
, 			{
				"patchline" : 				{
					"destination" : [ "obj-126", 1 ],
					"disabled" : 0,
					"hidden" : 0,
					"source" : [ "obj-132", 0 ]
				}

			}
, 			{
				"patchline" : 				{
					"destination" : [ "obj-156", 0 ],
					"disabled" : 0,
					"hidden" : 0,
					"source" : [ "obj-134", 0 ]
				}

			}
, 			{
				"patchline" : 				{
					"destination" : [ "obj-102", 0 ],
					"disabled" : 0,
					"hidden" : 0,
					"source" : [ "obj-135", 0 ]
				}

			}
, 			{
				"patchline" : 				{
					"destination" : [ "obj-104", 0 ],
					"disabled" : 0,
					"hidden" : 0,
					"source" : [ "obj-135", 0 ]
				}

			}
, 			{
				"patchline" : 				{
					"destination" : [ "obj-111", 0 ],
					"disabled" : 0,
					"hidden" : 0,
					"midpoints" : [ 956.5, 533.0, 894.0, 533.0 ],
					"source" : [ "obj-135", 0 ]
				}

			}
, 			{
				"patchline" : 				{
					"destination" : [ "obj-123", 0 ],
					"disabled" : 0,
					"hidden" : 0,
					"midpoints" : [ 956.5, 531.25, 777.75, 531.25 ],
					"source" : [ "obj-135", 0 ]
				}

			}
, 			{
				"patchline" : 				{
					"destination" : [ "obj-121", 1 ],
					"disabled" : 0,
					"hidden" : 0,
					"source" : [ "obj-137", 0 ]
				}

			}
, 			{
				"patchline" : 				{
					"destination" : [ "obj-138", 0 ],
					"disabled" : 0,
					"hidden" : 0,
					"source" : [ "obj-137", 1 ]
				}

			}
, 			{
				"patchline" : 				{
					"destination" : [ "obj-44", 0 ],
					"disabled" : 0,
					"hidden" : 0,
					"source" : [ "obj-137", 2 ]
				}

			}
, 			{
				"patchline" : 				{
					"destination" : [ "obj-153", 0 ],
					"disabled" : 0,
					"hidden" : 0,
					"source" : [ "obj-148", 0 ]
				}

			}
, 			{
				"patchline" : 				{
					"destination" : [ "obj-152", 0 ],
					"disabled" : 0,
					"hidden" : 0,
					"source" : [ "obj-151", 0 ]
				}

			}
, 			{
				"patchline" : 				{
					"destination" : [ "obj-51", 0 ],
					"disabled" : 0,
					"hidden" : 0,
					"midpoints" : [ 1183.5, 457.0, 1292.875, 457.0, 1292.875, 181.0, 938.25, 181.0 ],
					"source" : [ "obj-151", 0 ]
				}

			}
, 			{
				"patchline" : 				{
					"destination" : [ "obj-121", 0 ],
					"disabled" : 0,
					"hidden" : 0,
					"source" : [ "obj-152", 0 ]
				}

			}
, 			{
				"patchline" : 				{
					"destination" : [ "obj-156", 1 ],
					"disabled" : 0,
					"hidden" : 0,
					"midpoints" : [ 1183.5, 486.0, 1088.5, 486.0, 1088.5, 455.0, 1006.5, 455.0 ],
					"source" : [ "obj-152", 0 ]
				}

			}
, 			{
				"patchline" : 				{
					"destination" : [ "obj-137", 1 ],
					"disabled" : 0,
					"hidden" : 0,
					"midpoints" : [ 1229.75, 319.0, 1183.5, 319.0 ],
					"source" : [ "obj-153", 0 ]
				}

			}
, 			{
				"patchline" : 				{
					"destination" : [ "obj-135", 0 ],
					"disabled" : 0,
					"hidden" : 0,
					"source" : [ "obj-156", 0 ]
				}

			}
, 			{
				"patchline" : 				{
					"destination" : [ "obj-49", 0 ],
					"disabled" : 0,
					"hidden" : 0,
					"midpoints" : [ 331.5, 181.0, 189.5, 181.0 ],
					"source" : [ "obj-19", 0 ]
				}

			}
, 			{
				"patchline" : 				{
					"destination" : [ "obj-49", 0 ],
					"disabled" : 0,
					"hidden" : 0,
					"midpoints" : [ 316.5, 181.0, 189.5, 181.0 ],
					"source" : [ "obj-20", 0 ]
				}

			}
, 			{
				"patchline" : 				{
					"destination" : [ "obj-23", 0 ],
					"disabled" : 0,
					"hidden" : 1,
					"source" : [ "obj-22", 0 ]
				}

			}
, 			{
				"patchline" : 				{
					"destination" : [ "obj-150", 0 ],
					"disabled" : 0,
					"hidden" : 0,
					"source" : [ "obj-23", 0 ]
				}

			}
, 			{
				"patchline" : 				{
					"destination" : [ "obj-53", 0 ],
					"disabled" : 0,
					"hidden" : 0,
					"source" : [ "obj-23", 0 ]
				}

			}
, 			{
				"patchline" : 				{
					"destination" : [ "obj-153", 1 ],
					"disabled" : 0,
					"hidden" : 0,
					"source" : [ "obj-25", 0 ]
				}

			}
, 			{
				"patchline" : 				{
					"destination" : [ "obj-12", 0 ],
					"disabled" : 0,
					"hidden" : 0,
					"source" : [ "obj-27", 1 ]
				}

			}
, 			{
				"patchline" : 				{
					"destination" : [ "obj-169", 0 ],
					"disabled" : 0,
					"hidden" : 0,
					"source" : [ "obj-27", 0 ]
				}

			}
, 			{
				"patchline" : 				{
					"destination" : [ "obj-23", 1 ],
					"disabled" : 0,
					"hidden" : 0,
					"source" : [ "obj-3", 0 ]
				}

			}
, 			{
				"patchline" : 				{
					"destination" : [ "obj-4", 1 ],
					"disabled" : 0,
					"hidden" : 0,
					"source" : [ "obj-35", 0 ]
				}

			}
, 			{
				"patchline" : 				{
					"destination" : [ "obj-76", 0 ],
					"disabled" : 0,
					"hidden" : 0,
					"source" : [ "obj-36", 0 ]
				}

			}
, 			{
				"patchline" : 				{
					"destination" : [ "obj-148", 0 ],
					"disabled" : 0,
					"hidden" : 0,
					"source" : [ "obj-39", 0 ]
				}

			}
, 			{
				"patchline" : 				{
					"destination" : [ "obj-117", 0 ],
					"disabled" : 0,
					"hidden" : 0,
					"source" : [ "obj-4", 0 ]
				}

			}
, 			{
				"patchline" : 				{
					"destination" : [ "obj-57", 0 ],
					"disabled" : 0,
					"hidden" : 0,
					"source" : [ "obj-4", 0 ]
				}

			}
, 			{
				"patchline" : 				{
					"destination" : [ "obj-41", 1 ],
					"disabled" : 0,
					"hidden" : 0,
					"source" : [ "obj-40", 0 ]
				}

			}
, 			{
				"patchline" : 				{
					"destination" : [ "obj-126", 1 ],
					"disabled" : 0,
					"hidden" : 0,
					"source" : [ "obj-41", 0 ]
				}

			}
, 			{
				"patchline" : 				{
					"destination" : [ "obj-41", 0 ],
					"disabled" : 0,
					"hidden" : 0,
					"source" : [ "obj-42", 0 ]
				}

			}
, 			{
				"patchline" : 				{
					"destination" : [ "obj-42", 0 ],
					"disabled" : 0,
					"hidden" : 0,
					"source" : [ "obj-43", 0 ]
				}

			}
, 			{
				"patchline" : 				{
					"destination" : [ "obj-101", 0 ],
					"disabled" : 0,
					"hidden" : 0,
					"source" : [ "obj-44", 0 ]
				}

			}
, 			{
				"patchline" : 				{
					"destination" : [ "obj-125", 0 ],
					"disabled" : 0,
					"hidden" : 0,
					"source" : [ "obj-48", 0 ]
				}

			}
, 			{
				"patchline" : 				{
					"destination" : [ "obj-47", 0 ],
					"disabled" : 0,
					"hidden" : 0,
					"source" : [ "obj-50", 0 ]
				}

			}
, 			{
				"patchline" : 				{
					"destination" : [ "obj-43", 0 ],
					"disabled" : 0,
					"hidden" : 0,
					"source" : [ "obj-51", 0 ]
				}

			}
, 			{
				"patchline" : 				{
					"destination" : [ "obj-114", 0 ],
					"disabled" : 0,
					"hidden" : 0,
					"source" : [ "obj-53", 1 ]
				}

			}
, 			{
				"patchline" : 				{
					"destination" : [ "obj-57", 0 ],
					"disabled" : 0,
					"hidden" : 0,
					"source" : [ "obj-53", 1 ]
				}

			}
, 			{
				"patchline" : 				{
					"destination" : [ "obj-59", 0 ],
					"disabled" : 0,
					"hidden" : 0,
					"source" : [ "obj-53", 1 ]
				}

			}
, 			{
				"patchline" : 				{
					"destination" : [ "obj-56", 0 ],
					"disabled" : 0,
					"hidden" : 0,
					"source" : [ "obj-59", 0 ]
				}

			}
, 			{
				"patchline" : 				{
					"destination" : [ "obj-4", 0 ],
					"disabled" : 0,
					"hidden" : 0,
					"source" : [ "obj-60", 0 ]
				}

			}
, 			{
				"patchline" : 				{
					"destination" : [ "obj-78", 0 ],
					"disabled" : 0,
					"hidden" : 0,
					"source" : [ "obj-63", 0 ]
				}

			}
, 			{
				"patchline" : 				{
					"destination" : [ "obj-156", 1 ],
					"disabled" : 0,
					"hidden" : 0,
					"source" : [ "obj-64", 0 ]
				}

			}
, 			{
				"patchline" : 				{
					"destination" : [ "obj-63", 4 ],
					"disabled" : 0,
					"hidden" : 0,
					"source" : [ "obj-74", 0 ]
				}

			}
, 			{
				"patchline" : 				{
					"destination" : [ "obj-51", 1 ],
					"disabled" : 0,
					"hidden" : 0,
					"source" : [ "obj-76", 0 ]
				}

			}
, 			{
				"patchline" : 				{
					"destination" : [ "obj-63", 3 ],
					"disabled" : 0,
					"hidden" : 0,
					"source" : [ "obj-77", 0 ]
				}

			}
, 			{
				"patchline" : 				{
					"destination" : [ "obj-132", 0 ],
					"disabled" : 0,
					"hidden" : 0,
					"source" : [ "obj-80", 0 ]
				}

			}
, 			{
				"patchline" : 				{
					"destination" : [ "obj-80", 0 ],
					"disabled" : 0,
					"hidden" : 0,
					"source" : [ "obj-81", 0 ]
				}

			}
, 			{
				"patchline" : 				{
					"destination" : [ "obj-137", 1 ],
					"disabled" : 0,
					"hidden" : 0,
					"source" : [ "obj-82", 0 ]
				}

			}
, 			{
				"patchline" : 				{
					"destination" : [ "obj-49", 0 ],
					"disabled" : 0,
					"hidden" : 0,
					"source" : [ "obj-87", 0 ]
				}

			}
, 			{
				"patchline" : 				{
					"destination" : [ "obj-82", 0 ],
					"disabled" : 0,
					"hidden" : 0,
					"source" : [ "obj-89", 0 ]
				}

			}
, 			{
				"patchline" : 				{
					"destination" : [ "obj-99", 1 ],
					"disabled" : 0,
					"hidden" : 0,
					"source" : [ "obj-95", 0 ]
				}

			}
, 			{
				"patchline" : 				{
					"destination" : [ "obj-98", 1 ],
					"disabled" : 0,
					"hidden" : 0,
					"source" : [ "obj-96", 0 ]
				}

			}
, 			{
				"patchline" : 				{
					"destination" : [ "obj-98", 0 ],
					"disabled" : 0,
					"hidden" : 0,
					"source" : [ "obj-96", 0 ]
				}

			}
, 			{
				"patchline" : 				{
					"destination" : [ "obj-96", 0 ],
					"disabled" : 0,
					"hidden" : 0,
					"source" : [ "obj-99", 0 ]
				}

			}
 ],
		"dependency_cache" : [ 			{
				"name" : "bpm.maxpat",
				"bootpath" : "/Users/than/GitHub/BioData-Interfaces/HeartLive",
				"patcherrelativepath" : ".",
				"type" : "JSON",
				"implicit" : 1
			}
 ]
	}

}
